# xmcd
#
# Track frame offsets:
#	183
#	39838
#	54548
#	74563
#	96170
#	120305
#
# Disc length: 2522 seconds
# Revision: 5
# Processed by: cddbd v1.5.2PL0 Copyright (c) Steve Scherf et al.
# Submitted via: dBpowerAMP V12.0
#
DISCID=4909d806
DTITLE=Blind Faith - Blind Faith
DYEAR=1969
DGENRE=Blues
TTITLE0=Had To Cry Today
TTITLE1=Can't Find My Way Home
TTITLE2=Well All Right
TTITLE3=Presence Of The Lord
TTITLE4=Sea Of Joy
TTITLE5=Do What You Like
EXTD=
EXTT0=
EXTT1=
EXTT2=
EXTT3=
EXTT4=
EXTT5=
PLAYORDER=
